<mxfile host="Electron" agent="Mozilla/5.0 (Windows NT 10.0; Win64; x64) AppleWebKit/537.36 (KHTML, like Gecko) draw.io/26.0.4 Chrome/128.0.6613.186 Electron/32.2.5 Safari/537.36" version="26.0.4">
  <diagram name="Page-1" id="XtUeJ5EQWDyKY1fuObVz">
    <mxGraphModel dx="1434" dy="836" grid="1" gridSize="10" guides="1" tooltips="1" connect="1" arrows="1" fold="1" page="1" pageScale="1" pageWidth="850" pageHeight="1100" math="0" shadow="0">
      <root>
        <mxCell id="0" />
        <mxCell id="1" parent="0" />
        <mxCell id="tiojj71F45lMDTv18i7m-17" value="" style="ellipse;whiteSpace=wrap;html=1;aspect=fixed;fillColor=#647687;strokeColor=#314354;fontColor=#ffffff;" vertex="1" parent="1">
          <mxGeometry x="369" y="130" width="100" height="100" as="geometry" />
        </mxCell>
        <mxCell id="tiojj71F45lMDTv18i7m-16" value="" style="shape=image;verticalLabelPosition=bottom;labelBackgroundColor=default;verticalAlign=top;aspect=fixed;imageAspect=0;image=data:image/png,iVBORw0KGgoAAAANSUhEUgAAARcAAAEgCAYAAACerDfBAAAAAXNSR0IArs4c6QAAAARnQU1BAACxjwv8YQUAAAAJcEhZcwAAFxEAABcRAcom8z8AAElQSURBVHhe7Z0HgF1VtfcDikqzIXbUz/JUsD3b86E+2/NZn50nFlAEUUSUplIdei+GhJCQQEikJIG0AYaQECa9Tspk+r1z5/Z2ei9773PmW/vMiQzhBhIyd+bOzPpx/8ydycw5++y71zpr7bPLFATZS2dn56tK2dKnQhr+xDXda5hHzg88upa6/i2mpp2iVuWr4OdfTRaSJ+RyuSPjP0MQBKnN6tWr3/fkk0/+WBXlaxzdWhIEwRPgUCrgZOYR23smpMEm4nj3E9t93NTNGYIgXJFKpb5bLBa/+PTTTx8dHwZBEGSIs88++4iurq6fOo6jeZ5nQaSSDFxSCgnbzRw/CD1aCH2aGwRCn3kQxeSo52d8398Ov/8s/F3Vdd1u0FnxIREEmeyAUzkpnU6fkysU/sECFnIH8jxIEL8BfDY4CK/9oajqqo6OjjMTicRr48MjCDIZmTl16vsSPX2zCSGLLcN4mFHGQhYMQsQy5EheRPx3AvqcBoNw0DHtFlmWl/b39N390H33vTc+DYIgk4n2Tds/me5OXuvb7ro48KjpRA5KMZ7pKLm+1MKdLeuOj0+HIMhk4MKzL3zTxqfXXq0L6nTqeJ086qjpLF6OADhmu1iozJFKlQvg2yPi0yIIMsE5rLet/XzieiLzqRh6lA4eQBp0wIJjwTFJ4LNywJiTzWZ/HZ8XQZCJzH23Tv+PTHf/lYFPs1GYwTtsazmJQ1HcCRzSgEqSdHuhUDguPj2CIBMRPuBNrYh3ObrVDs4lOaLp0L5iIe/0dQzDmFetVv8QFwFBkIlIuVz+imfaWeb6ayGqyHMHUNMxjIRowMfEUNMwbi0Wi9du2LDh2LgYCIJMNHRd/zPz6NaABE9AVNFT18gFUiM4R2Db9k2CJDSJoviVuBgIgkwkFi1a9CpNUa6EiMWKOkRoHR3LXvHoJQw7fN9fqqrqD+Csh8XFQRBkorBt27YTVFldHgYhq0snbi3xAXlBsNHzvAWGYfwNnMsr4+IgCDJRSAwMfMkyrcUQTWh17WsZLp4aubQPopeCo1tyS0sLTgtAkIlGMpl8v2vb10UpUS1HUC/FmLLWPH/+fJw5jSATDU3TPu253iODfAhKLSdQTwHM9fOSJGHkgiATjc5k5/tt074+svRaDqCeAgxJXTFr1qyj4uIgCDJRyOfzX9Y1/dGQBkq0bEItJ1AP0WAwCIKEp9sbOjs73xgXB0GQicKuXbveUa1W7wuDkIyac4mnAYBzWQlp2R/CMHx1XBwEQSYKixYteoUsSc3gXNzQp07d+16CcBDOowSUXsUdjGma18ZFQRBkolHI5c4dZEFbSAJIj1g/H4dS0zGMhIZG6BLHce6AqOVeSMs+HhcDQZCJRrFY/LzvejqPWgKPCLw/pKZjGAlx50JZYJv2k3Deq3ABbwSZwCQSiVfnBjJ/tTWjJaAsH4bRzOXazuFQFaVFzDAN88mKWPldXAQEQSYqV1xxxUe37dh2BmOsh/eFRNRyDocqABwXk0Xxqu5M99vi0yMIMlFpbW195YIFC07VdX0POJguRqg44nONKEQtHvUYZY4iit+LT40gyETn1FNPfcuWLVtuFEXxTtu01kRhxkg5GIB6pCiXhcWqIJ8F3+JMaASZTKRSqc+k0umLVElpiTzCSDiXGE+3Cp1bd1wYnwpBkMlGV1fXu8vl8lWKosyxDOthSJH8MIgeIdd2Hi+mIBy0dHMpHGtBNp2+edZNN70uPg2CIJMRTdPemEwmL5VleXkceETr39Z0IPtTjK5oi3t6en6Cm9MjCBJxyimnvKJYLP7Rdd1tjuvuCvgI3gNMk0KfhcTyiq7lbqGe96P4kAiCIM+xZMmS47LZ7NUBYfkDmh4AEQ44Ij+bSl8Kf3740FEQBEFqIIrifQFlygGlRty5EOZXC6WL4z9HEAR5IV/60pdeKavytDB86XV2o05fgPjEzmQyp8WHQBAEeSGRc1HkO4e8xgE6F0JsSKV+FR8CQRDkhcSRyz+GvAY6FwRBRgh0LgiC1IWX41yoj84FQZCXIHYuUyOv8RLOJVI4OBg4xC4NYIcugiAvgaIpt0bO5UAWkuLOxSVOLpU5M/5zBEGQf3EYH67Po5Y9e/a8oVwun0s9ko8cTC2HMlx8L2gWULki3sCXcmhrazsiPiaCIJMBcBhHJxKJ41evXv1B1VI/qVv6bzRDu9Q0za/mS/lvV6XqrwcyA+fB792qquo9AWG7+ETEmg5luPhqcyyUpGLlMqUk3mnq+kzVUH+4Y/fuH2XymV/atv3jQqHw79ls9gubcpuO7BF7jo2LhCDIeKJj27YTStnSp3zHOV2ryL8LCbvccxzuLJ4hnp9zdKuLur4Z+FRmHjECj26kjt8d+mwtOIltvuX0wr/nQu8A5xbxyMWjLnP8PkiPhNCnA3DcNHG8EnxVefBDbC/r265HbLeH+qRKXW+eVCz/kfnsN3JJ+JZckE+AiOdN8SUgCDLWbNq06Ug5V/moXBF+JlWlM/o6uk91LXuDrZlPGrL6T3AUKyFlKYLjcECFKM05UOhBzIrmv7s/uIPiDPsVcGJdUMY/uqZ7jaObixzbuVeuSHcLhcoVe7bv+s6y+xaeuPGJ1e+OLxNBkHrDnQml9H9UXf813PV/6ppOi+/4W5lL9oRBmCOmsyMMQyNwabdn2vPh520QuXjRjoce9Ws6htEWixbt7odoZiW1vM3Ecps9y11LHa8jpEGnLilLTUXfrgvKEl3T5kiSdI+mad/YsWPH2+NqQBBkJEgkEq8Fh/H+Uql0TrFS/LPneZcyxjYNBoNtQ2FA9P/n4IHC8CjBo0NGfSApzmgJXs9jb3mhqLUwTXNLLpe7QhTFa/v7+78GdfLOuHoQBDlYMpnMJyuVyp/hzv0w3LmbbNO8T5HlO8DAzg2CYHNkdbUMdwIJnOgg3/oErnctOJjrTd1cJlart0OdzGrftesva9eu/caWLVteG1cZgiAvwmvAWD5laNpljmYUqUt2BpQFkNLIEIGQ0KdqFJlMAscyXHDdJPCID/UQQj2Y8L0fuIQTKGVxU39799+K6eKH4jpEEGQ4DzzwwMc2btx4STqbvoT4/pNhEKYjJ8I7S3naMPxrDQOc0OLXDF8GybA6iJ0scbykXJFuBM3v3tlxevfG3R+JqxRBJi8XXXTR0Xv27Pm6ruvrbdtugzvxHsdxOgNCkwe0CtxkF38M7jOBuXRXSJhIbK/qWa4gFCuXtbe3Y78MMkk5ZcorVq5c+bNkKrV46B68D7WMCfVC7U0TeUQTI1bFBeVyeWa1Wj0Hx88gk4rOHXvOtkxrlud40eA2Pso1oOxfimYb1zIk1EuKb3wPqdJOn/iLKqXKtFQydXN/f/8H4qpHkIkJpEBvSbZ3n1Xoz04LPCpGt1lMf0ZeMVDH62zVWGgZ5nJRFb8WfwwI0rh0dnYewyf4wdc3Qhs+yjTNjxmG8YVUKlVTfF5NR0fHl/P5/N1KVXzYUozLIDpJRKF8LeNAHbr4nKcgTBDDXWhr5mxZUZYUCoVfJxKJz/HPo9bn9GLiny//nPnnzT/39evXv6G1tfWYuEkgyMHR3Nx8VBiG7+ADtzRN++9KpfI7WZa/Dbn83+D7+aDLXNddFAR7E//9QwgZ9H2fz+VxApf44FyCmkaBGhnx1NKjGtS3HXo0gLqHj8olfNzMy4V/znCcxwRBOEsUxXmlUukCcFRfB6dzEbSJb/AbCBz/nbt27Xp93IQQZIiWlpbjNVv7tGZp/1OqlJryxfyf4Y7VBI3nCXAkVxZLpVs8Qv4KDWwqDen/Ukrns4DZvOHxRsubbW3x/8dAm49UyyBQIyt4ReKProfBP4/nfz4HoNgpMcZseN/MQnYBOKubHc+7XFbVf4BzuR6czkzCyF8KpcJFFaHSBG3ni+B8PvX000+/OW5iyGRCypROrOSKv/Bsd4FpmPnApxuZS9pBu6njD8DXTvhZAe5+DxLHTUDEsQO+55MB1wYeeZb5tBLyR6JwpzwQ1TQCVN1V67M4aPE5WoSVQsrW8xnl0AYepS7pZj4RoE1sg59lqeuvB63h870gatriW+4GQzcKvu21Svnq6aHjvBvSqlfFzQ+ZaGxtbX3rzo3bTu7vSpwjlYWHNEH+JzgKL7o1HQhDN7EhoO3WasyoCSp4Rez9yhneHvYDOKfA0vTVpqTdW0jlzu3v7vvO+vXrT4qbJDKeuf32248spfPfHujtv0EsVO6ydWMhcf2lzPG3MNffAnck/YCWdUShDlZ850qPaq7pPMGXwaAeyfm2u6GQKyzuTfROy+fzv2xqasJoZryRTqff2ptMfrO7u/sPxPaU6DYyPAfns4X5t5NxWD1q9LS3fe1tevwZQPzedV05l8v9XRTFX/b04Ep9DQ+flt/b23sKfGAPe573lGVZl4RB2BV9oNyh7F2CoJGWIkBNbA1va/A+ZNzDRE+hUrZtXw3tdC6012mZTOY8sSB+MG7KSANxWDGd+4Gl6msopXboU53fJQKPqPDeiB5RDv/AUaixFO8o5rO8o9neTIH3NqNs0DOtTVKpejr4nlfG7RoZS7asX/9xqSj8Sa2KV9uqsWLotgDidwwescBnWfMDRqHGUntnee8V4OjWSqUqzRTK5VN37Njx4biJI6NNoVD4N892H3JNZ0fg+k8y228hljeAHbSocSlot3zBc+aQnZ7pbHFddy2kTQ8ZhoFOZrQAB394Op3+d0mQHhzy9/tQ64NDocaDaiBIwt3d3d3/Ezd/pF60tra+XlXVaxzHuVuV5IdCGlDsnEVNNEWD91gwGAYBqRRKc3Rdb1Mk6e/ZbPZ9sSkgI0k+kf5csrPnPFs110YuHR8joyaD4MWxFaM1k+y/Ua2IP4hNAjlUoF4PW7BgwVd62juX5gcy17m69XBU2xixoCaDeDsHbNWYn02mLxzoSsxO7um5CH6EW+geColE4tWVSuV8VVdv4HM4GGFWeKC7AqJQE0XQ3gOXWIzQIthBv2Nay6v50mktLS2vjk0FORjS6fTrIcf8P3Au0y3behgqNRe5cKjrmh8ACjWRNRTA8P4Yx7PcBXK5ei3YxkWqqr4nNhnkQFi1atXr5Kp4laEZ9/uOu4h4ZCVUarSLYM2KR6Emg/gMbYjcfcfbyly6w1T16xRJublYLOKawQdCMpk8QaqKs13Nfpw6ZPaQvwawAxeF+lcfDIfa3jzi+IvVqtRSzuU+G5sQUotly5Yda5rmBvDMKWJ7s5njPwkRi4uOBYUaJnAwIQ18arud4FxW+La3RqlKswuFAs5NqgWEdh+ybftGPqGLQbXxofuhR1nNykWhJrnANsLoPRBQ1kYhVTJVY14mkzkxNimE09TUdFR/f//ffd/vpUFwPV/pLZoXhBELCrV/8RQJbCTwGWEezfuW05rL5xamUqmvx6Y1uWn6UtMrk+1dV1ULpTnM9jYFLKShH3tlFAr10uKPqknAAo9WqsXSgp2btl1XKpXeHZvY5GT37t1HZwYyfzUk9XFHt5ZCHqlEEUutCkShUPsXT498KjiacSdfwlUslWeLovj22NQmHYetX7/+67IktzGfPE5t777QZwY+bkahXobAbkLCbOr4fb7lbpaKlbuTe7ovXbRo0eRbSvOBBx74r66urjsc2xlag4UDdVSz4lAo1EuL91HG+La3It2dnNXRtvvi2OQmB0uWLHnfju07/qZq6lTPdlZhKoRCjZxCFoTEdO41Fa0ll8092tPT8+nY9CY2Taf84Zj+XZ2/Jp7/TBAEHkYrKNTIij+mDn1mhmFo+bbzbDKZPKuvr2/iLzq1Z33bKVKhei+1vU1R/MYfp9WoIBQKdQiCF8e33Y2VSuWW/v7+P8G3r4nNcOIxMDDwQd9yM9QjSuASFTtvUag6CuyLeUSjjGU8z8vkcrmPxqY4sWhuaz4qnU1fEwZhtM9yNMuzVoWgUKiRU9zHy7sgZFm+kQ//iE1y4lApVn6mKcr9IaFqtBtdrYpAoVAjqmjJzAAiGMpsRZYXa7L8zdgkJwZiT/btpqI9aWvGfSENBHQuKNQoCuwtpEzUReVerSLdzNdKik1z/ONoxqWe6ez0LWdVSAIcKIdCjaYCcC6ElX3TvpU4/jJDM/7OV3mMzXP8sqm19f26qD4CEYuFExFRqDEQT4086g8tuBYOypL8DDiXz8UmOj4ZHBw8vJQtnOMZ9tyoVwmdCwo1NuJDPvhDFMA17esK5fKp8Hb8bhubT6c/Z4jKfZAO/QNyPoZjWlCoMRTYXxiEIfX9W8vV8nU9PT3jc3Ep8IqvqBRKV1qqMZWYzn0hC9G5oFBjKcgcQhoQF272oijeUSwWL+V2Gpvs+IFvpK0rWqtve2uJ5Sb4fIeaF4xCoUZHPHIhLLANa7XjOLN1XZ8py/JJscmOH3K53DepSxI8x8P5QyhUAymGUtre1dV1CtjqkbHZNj6VSuUtkiTdQx1vS3QVtS4QhUKNiQLKBiFBGiSE7AbH0gQp0odi0218qtXqT0zTvBsil6GtV2tcYCOJj2JkDIU6NNVqWw0rgLl+s1wVr010954P3zZ+38usWbOO2LZt2y8VXT898Miq6CpqXdxYiHcoc+0lnneBICMONLcXUKtNjpUAZnsrdEm+sXtn+13lcvnNsQk3LlDIkyBqaQNP3sl3VmmY0bh8GUAapEMW5AKXdFHbexgilk5ieSs9y1kJ+ecuy7KW+L6/TNO0Z+H9xiAIlsL3iyF8RKFeIN4+HMfZDu1lvuu4yyxZXWVL+g7fcjcEHu1gtr+OOX4z8fxVcKPN8ZtZ6NHa7XO0xe3BowZx/QJkGF35fP4DsQk3LqlU6n/DMA4JeJBQ68LqLVI7JAlZGISUecwnS3VZm6NLysxSNn96d3v75wzD+BDf7RGc49HTp08/ZuHCheOnkwsZMzZt2nTk/Pnzj+btZu3SFSfsfGbdiZog/9Q2rNvy6ewlQrF8qyFrU+GmthjsYljYHMOb6lgN0YBXVASfGrlc7ufxJTUmbc1tRwkV4e+UUG0QHAzvy6h5UfUUH+pMmAvaTR1/AO4Y/fC+L2CsqCvaY7ZqtJiKdq5jOF9QUsrr4qIjyIizdevW40r92U97unm+qRobNUW7nO/JFZKgDJHNNoigdw/6VAt95vN2W7M911s05PtP+4IgzIJo/W1x0RsPoSh80pQNvoq/OBYznyNnBrAgMDXDeEAztL9ns9kL0tn0tEKhcMb27ds/evasWUfExUWQUePss88+YuXKlR/u6en5eWpgYC5EOn8RRfFi27ZvCijTxyzKjyY1UkHXtNZisfjJuLiNB4RWn3U0cymkHsqYLKsAQOjJ1w6tmqa5AzQ/k8mc2dra+p64iAgy5qxYseL9/KYH9nKFpii3QMpkRPPuxsLBsIAv6K2oqjqtUqlcGBexsYBqOayaK/9VE5U7IXLxRt25wAfDPNpmmMYt69evv6i9vf378AG+Ny4egjQciUTinRBRn6tL2jOebs+hPE0abbvhaZFLLNe2F8iy3JjOBcK9Y5WyeIdrOs3gCZ26PyXinn4fPMsZ2LJ9+wUnn3zypN1pDhl/tG9r/2A20f9n4ni746b8HPXu7OVTAvhWJIScWygXfi1J0mvjYjUOhXThE45uPs0c0gyRS4HncjUvZiTEK4QGtmNYHXyLEtBqy7LaTVW//umnn554a4Qik4HDoD1fZtt2mvmkj9ruTmp7O0LCSF0dDLclnzHiksWGqj+cT+U/FpencagWi99gjsfHtvh1fZbPKxqA81Qzucy5pmleD1HTjTyPjYuCIOOWzs7Oz3Z1dd1u68ZCUzHuh3ZejBo8NP2a9nCoYpHj0kIaZnzLXS/kij+Li9I4SIJwJvNIYZCyNnAu9enQ5V7WoywgQZLafpqvZp5KpS5cvnz5W+JiIMi4Z960ecdlevuvNGXtUeb6QkBYHtq9W5fH1WCmoU/LgUPmwLke1UX5mrgYjUMpV7iJd6pCiBVARYz88gpxxMJsb4Mla3eYqvHUhnXrzjnvvPPG/1qgCLIPbavaXpfvGbjbs5zVEMHcyny6qW4D7vgxue2SILQUfUFDjXdpbm4+SpXV5sj663Tx4LAi78JcstvRrXuq+fLtU6dObbzOJwQZIQrdheOkonCZrRhzmeNv5+0/soN62BjEAyENGERL8zVNa5ynrNPnTn+rJqtr+MXXLPihiDsWGvi2YT7tOd69pVJpeldHx/QwDHF4PjLh6ezsPKZUKFwYEHofX8LE0cwnuT2MuIPhdkaY52rWxnKh/N349GPP7v7+NzuWNatuziUIQ8e2ZwuCcEV3b/clwHHxqRFkwtPd3X1cqVC6UC6L17u6tYTbQ01bOVQF4SCxXVHX9caxr+5E4kt8Xc7o8XMdQjY+4cu13TVZ8OArVqx4Y3xaBJk0zLrttjdlelMzie21RhMga9jJoYo7LeK4baog/SY+7djT39//aU3VlkdPiEbaucSYuvHU+vXr3xCfEkEmHaV07pvE8bsjg+Cdu7Xs5eVqKC0KLFVfVsgWTolPOTbwGZ/pdPpDsiyfo6rqVOKSHj4TumbBX6ZCn4agEqNUkAXht/GpEWTSolSlXxGfOOBk7BG/kYP5Bi55UhOUyx3dvNAxnM93b+0evRRp5hW3f9QStUtMRWuxVeMJ5hMxcqQj/fiZR0GUabogz8gl0zfNmjXrqLgICDJpyWb3vKFcLj8kCMJM5hFjpMeTgR3DmyGo62/UBWWWXBHP7ti47TPwo8PiYowsLS0tr+3d1XlBsT9zt6OZcwLCctTxZwQebR/x5+8xcKEZtSI1CwXhp3ExEGTSMzAw8B+SJN0UeKRcj/SIj3mBCKbMXPIYBA+rbc1sqeZLs7dv3X55sVh8V1yMkaHpV39+/a71W6+XipWWMAwzcFGl0GcUvqrgALwRdSw0gAujOwISSNT2NnZs3oGOBUGGAe7ksGq1+k2wk6Gte2rZ0aGI97/4zAAHY4J9C6FPpZAFA5qsLOnt7W3K5/Mjs8/0jBkz3rxj89YbtIo8zzOcrdHFcGIPN+JzHiDMA6f1TEgD0zec5sTOncfHRUEQJAbSoreBA/AiWxzp6IULXpH4sbkAx7TuhpTsT+Bclq5ev/7jcVFeHunW9Gt6O7uvtw1rFaRA/eDF1JoFGUnxjRktbxvxvIcMRbssLgqCIPvg6eYcSulaSF/Eei9xEhIW+paT8lxvjWmYywvZ/FqInt4XF+Xg2fjE6p8ZoroQPORA5Lp4pFLjxCMq8JK+7TyZHEh+L5FInBgXBUGQfehp7/momC9fSyx3SWSftexpJBVHMMwhvWKhcle6J3lVGIbHxsU5cHIDA98o9GeWyiVhOuR2O+u6Pstw8cJ7ZEX/wMDvwLngpEQE2Q8tLS2vLgzk/gIRxcrIcGrZ00gL/EDgkoQmSrOlUnUZRC+/iotzYCxbtuzYaq7Ct0NQQSTqtK11onoICs8oy+RKpS/FxUEQZD9A9PAV37STkXMZyQcrLyaewQDgGzxFUW7LZrMHPrh1oCv5f2pZWh7NYeAHGo1C83PEuKa1PZ1OvyYuDoIg+6G1tfUYV7eGRu2CGdW0rXpoaBZ1KIriomKxOAPO/Kq4SPunb1ffO8rZ/K2WYlwSkkCqy6JP+4o/+iIQr9jeU67lLlOqwm1xcRAEeQmkqjDLMs2lkB7xJWbZqAQD4BfAZk1NUudXCuWWUqn04bg4+yeXyfwCnMvVrm7eGLJwdLZj5c7FZ4Svfu6o5vbcwACmRAhygJSqpdNs237Q87x5dXksXUtB5FwkYrlLpbLwUCVbuAvOvP/N7Ht7e9+kyPL9gc+eJZbTDgY/enkceEJHt1ZD1DKTz1mKi4QgyEsgCMK/y7J8vaYo50b2ynfGqGVjIykIOsC5ONR22z3bW6FVlc35RP6dcZFeyLZt2z5iG2YLeKAhah20XgrDQWp5W5WqfCfvBY+LhCDIS7B79+6jRVG82rGdeyEggGxjlJ7s8vPEuKbzRH4gc1pcpOfT1tZ2BEQM37J0g4c38MejFLHsFeCZzhZT02+Ki4QgyAECzuUu13EfH1XnEgkimCAIbdV8XK6I06AoL5zcmM/nPyCr6nzHci6LLH00nQvvc6Es4MP9ZUH4VlwkBEEOkGKl+H1dVWdBqsJG17mA4HTU9gd41lEoVP4zLtJzbNiw4T+r1eo/fdu9ge/ANtqRCz+noxrNOzZsfWHhxhm33377kYVC4YRkMnkS1OunU6nUZ3fu3Hl8Z2cnrqI3CvCN8cIwfBvU/38+9dRTJymK8oVEInE8n9kf/8qEA9rXlwzD2BXSoD4LeL+YeCxiuWs0Ubm3lM//Er49PC5WxGG6ri8wbPsHxPWXDzmXGgeppwDXsDYVB7L/E5dpXFEqlY6HxnwyfMBzTdNstizrCkJIu23bOc/zyr7v5+DftpfL5XNBXwEDeHP8p8gIAPX5/5599tlvQD3PhPrOM8Z013UlvhMn/MyEn0Fgrq7LZDK/zeVy/8UXO4v/dELQ3t7+SbjGGZCi1GUJzBcVX8nAZ3lKaFaX5LvBlI+IizU0IlfTtMdYEOwJKPNG5fHzvgKI7T5xUKP9GoRkOv2VgYGB31YE4RZowGcEYbgR7pxDM1aH4fn+avj382VZfqhQKswBh/R7aOjviA+DvAwuvvjit67buPEn+WL+b+DczzUt67mZ+/sADmczOJsz8/n8tEwuM2v79u3fByfz1vhQ45qCXjjOse3UqD2KHqbQhTyMDWohCUpwY70a2vgn42JNmbJu3bp/E0XxHErj7t8aB6ireJ9LEDJNkG5ZtWrVuLmj7G7b/V1wyvdahrXRNe15nu08w3zyDDhonX/I8PVfiqY1+GSFZzkzfcd9lHikzbWdPWJVvC/R3f31+JDIQdC1Y/dp4KiXGarWDBH3E5DS305cry2a/zKs7v9V/4S2U4/MdS1nuWWYG23baVFEaXb7hm0fjA85boGU+12KLM8FA3dHvc+FC2w4IAz+o53ZcvmkuFhTpmzevPlbEFJVuF+JPohaf1xPcefCQmpI6sMbVm54e1yshqarq+uLqiSvjZzxvsAl1bzOfQhpCAG702KIysNwvK9BA3npIdTIlKampsOrufJf1Kr0RFyVzwFBd82654LXvhDLe6iczs3r7+z71SmnnLL/QWANzraOjhNkUbwGnIszJs6Fi9en4xUhMvxRXKxo8Nz5kJ+q/B/HxLlwAY5usg0bGt+5QOVdBinNfbZhPsDviC+rA407VMJ85pE9gUuWC6XKXUuWL/k+HL4+65ROENqa247avHHzFaog32WI6ryQwp365dY/DZirW4/4EMmUU7kH+nbs+WN8mnHHtj3b3qtIypPgXKwxcy5wWuaSjmq1esaiRYteES2ZpyjKPb7vb+YGPpbOBSKXx2fPnt3QT1T6+vr+AxyxAsXVqE/sQ90cHByLDSmhS21vU6FUuj6dTn87PhVSg46Oji/rsro9DEO+xushzdYPPRpC/VNo8z51vHaxVL0zn0iPzBKOo8ztYDeQFi2Behn9hzF7Bc4l8EhrvlCYpqrq/5vCH5mCp/kLoXQHN/CxdC66qDw2Y8aMhu3QbWtrexNELE2U0d6owJxa13Iwiru5XNtp553BiqY1CYLwgfiUyDAkSfpsKpW62tSMtqjSoPpq1unBKK5/COc7K/nSLfmB3AyI5Mfd9JMbwW64c4kuptZ1joaGIpe+YrF4afSgQhTFY+HDuiUgrML/EUL12n9YbwHgXJY0snPJpdIXQfpyM3X9Hl7eEasr/ijPozlGaDfzSYsqytd1dlaPiU+LAFDdh0HD3eN5Xorafm5En2jCsSBylF3LXWsbVq5SqYy7PbIawrkAAaE9MpQjk8n8vyldm3d+QBfV60KfuqOyvML+BDSyc4F05T1KRZ6jVKQroXGnuSOueR0vV0M3UJ4maZaqTTVF9avxqREgn0x/GdIYY6iWgFp1eCjiHcFASAIFovmLuru7/y0+9bigMSKXkD8xypmWuQUc9C+mlNLpb0LkshxyJSXqnKz1R6MhoJGdS5Q6un4vMZ17mUPSdakrvvOBT2VLNe4Ch/8XqBLs3AXCMHy1kC1dDs5Fr+s6znBsOIcCXJrP538Xn35c0CjOhXokBZHLdEjtr5wCPzwloIEFd8xRH/L/PAGN6lz4rFOosDtDGpCooPXqjYfwPGSBQ2xvtlaV78j2Zd8bF2FSw8ehmFI0b6ZSV+fC658wjxDyOEQvN4yn2fkNkxZ5lA9UXGCa5n9PMVXzfMjzF4NzKWHkUhu+0b6u67xxCyOeDg3X0Opeuqvb15mytgjO+7W4CJOa8kDhp2pZvBoarlRX5xKNtwpCx3GWF4vF30Jq9La4CA1PozgXuDE+C5HfH2VBOHWKUhbvhQ9tS0hZHzqX2kDk8r+aolwR+syoax2RaCh1AKG5E7DANDTjD3ERJjVSsXqpa1jNEDlaI9qRu6/gowXnnvF9fwPcTK6B0P47cREanoZwLuCcwZdYjmHfLwvi4imQ3//D0czFAWXmIMO0qBaQEp1qGdYjPKoYlU5vHh0BqihfHxdh0gIRxFGVbP5813QeBcei1bX+AXDsScbYTyE1uh/C+9PjYjQ8jeJcIPIjkAUt1gX1/CngpU9ydHM33JVVfFpUG9u2P2eZkQP2X9Zo0IMVPwdESIaqzYuLMGlpa2t7XTGTv82oqD9kri/Xvc/FoyaldFoQBN3VavWSuBgNT6OkReBH+uFzWudZziVTAp+thzsy/6E6KoazPwGN6lzgDvZbyMOfCH0KjXsUHDC/A0B2VC6V74yLMGlpW9X2Ol1SloYkaIF2GgySOta/B4oH1XEqlcrcuBgNT+N06JI0c/zVzCOX8cFJ0T+EvGL3/eXRFNCozgXuYKeBc1kEd7VooGHN8o+koIGDMYXVcvmauAiTltbW1ldCZD2Dut52cC5m3W+AUPeQEmUgekkZhnFlXIyGpyGcCx/n4lHBs9xHfNO+bgp4mpU8TxrTqIULaFTn0tvb+zVwLndGjqXe9cSPH989TV0/Py7CpKZj844faaJ8BziXZF2dOxgH3EAkS9dPgxvKzL6+vs/GRWh4GqbPxaPEN90WWzevmkJd+jXIj9rHtFBcQKM6l0wmc6Ku64shmpDqnRYFLoQsPoOUPwikSuWHcREmNdV86ccQvTwFqaJXtzFGXHBouPNWHMuZqqrq9PE0SrchnAt8NpAS+b7lTHcN+7Yppqz91DPsFWNaKC6gUZ3Lhg0bji2Xy/dAhFffVfrg0OD5S45uzTRkbXlpoPTuuAiTmlwy935dkG+se1rKxxlRpkM6dHk+n78aPvOj4yI0PI2RFkV9Ljt1ST/DVs2rp4j50u+oQ+7jHYg4Qnf/gIM5B8JyGhWUF7fWNRyq+MsltiYqdygV6e+JRAL3bxrisEIiPS+q+73Uqr9DFe/rCkLd0LQ7+vv7fgRneW4t2AanYdIiFoQB+JNqrnTxFKFQaoI7ZSuEM2UcRLd/BgYGPu4Y5g7PdnfzyYUjPSYoemIH9R+woKBr+pyeXT3viU+NAH09PWdXxeoa2zBXQP1312XYxND0C1uSpHsgDR5XC3g3TOTi017TNGcaqnrWFFM3f+mZ9ka4Y+bHtGBAIzsXzopHmy+2NPMx5vpDdcWpdS0vRzGMMatarc7m85ni0yLAeeed9+rNmzdfLkjSFczzV0eVBf59xDrY+XFiUqnUuFuRriGcCxB4dK1hGstlWT5lyu5tuz9ia+Z6uGtaI/ZBvRwBje5c1j711NvkojDXt9wt4AR6Qo8WDnUlukhQ74xQOQgCwXXdCt/vKD4lMox8Pv9lSVE2MY/sCigrQ/0boU9ZzTo9GPFw3qMBfAZVuMnugCh13C3Y3RDOBaJJiFyyELncXCwWfzilmimc7FvOM/CBCZgWvTQ71247WatK99qacQ6xvZWQzoSH9AQjvmMSx1/W3dNzc19f38/iUyE16O/v/52p6Y/6un0zdci9kMbQl3VT5H+zVwB1/FQmkXog25F4X3yqcUXsXBZHF1PrekdDAIO0yPXdMyH6/sSUZx5/5h3gYJbwdUTG2rlogry40Z0LR6mKp5myNpevFxoVnPNyGjgo9Blf9pTaprX+0SWP8q1sx+0K9KPBrFmzjsqkMmdair4a2uy6KDXi1Kjb/Yp/Vvzv4O1efMMe2Lh67bgZ7r8v3LnIkrR86GL2ud7REviPkLIcpERre3t7PzbloYceekM2lb6KUiryfxzLNXTBuSyfcWPjOxcO5OVfzOdyj0O93RfQ4LYwCBxQ1DFb8/qGif9OwKIO3EBXtGeESmXRhg0bfgtV8LxtMJHaDDYNHl4pV26VRXGaZVgLTd2cA46+8FI3x72d5gzauu+6S4nrN1u6ubRUKs0tFwqnxIcfl8BN+c1QH12RIdW49lERizrEq6IsP5DL5T4yhT/uzGQy3wEj6eblGkvnAumZmhlHa2hs3br1v/L5/DWdnZ1XUhY/ph4Ov66hS4t60v91lx1GNpe9d82aNbj5/ssgm81+AXL7GfAZnA5RTCKu0ueoUd8cFjDTsqzbZVW9Gz67cx988MFPxIcct7S2tr7e1PUx79BlPskIgnAKvD082mCqUqlcwBjr5LsSjJVzgTtKyMd4wIc+bpwLZ+rUqcdv3rz5DCj3dt/3twaEdjLHHwD18cqGu6XLHNLGPDIQ0kAFI+jxLdcTRXGzaZqz4Ou43+1vLOnp6floKpX8o6loXZ7lboKwPA3taBfU/6NQ1+nQY5sg5XkGvu9nHt0GN9EOaOsJCN2vhr/9HjiocbEJ30sBTvZNruMu422uln2NinhU6BPTMIxLoBRDS7RC9PJdQkgUuYxJvwvkwGCEHrP9DZokjZv5HMNZuHDhkel0+nNiRbxIKYu3KxXhJmjsDxqacZ8hqY84ujWDz7fYs3XH71NdiTMvueSSCbUR+lizeeWaD2x86tnvWIp+ejGT/y3U9dW+481wTOdRVZCnlTKFv4vl6tXQ8K9wXfdr5XL5zfGfTgh4mu7YzjORDdeysXorng9HPV+Euj0jLtYUvr3Il4MgyEDkMsAIdes6xH1/AgxJezbbm/pCXKxxC+Sbb4RQ/Z17NrZ9aMv69Z+q5orf0DTtjcXe4pviX0HqCKQ6b4Qo8hPUcr9ZTGW/UC1UP9HS0vJaSB1eE//KhKNclj9iW/YqiI5HZ82h4eLBgUcdyD4UU9WehPp/bucKCA3fWyqVTgfncmHAAnlMVqTjAZPtGfmB7LhZ/QtBGgW4mX3LdZxmnoaPunPhHbk+UwIS5AzVeAhurh+NizUE3Fkv94g3hxLaDl6Ijuo8o6G0yCG2uyvbmx63jwMRZKwA53Kp7/nbxyRy4WtBcRsOwpDY3tN8adK4WEPAD76uG/qDruU8BgUMRtW58AljPvOo7d2vCuINTU1Nr4yLhSDISwD28qpypXK373obov6FWjZWT/EhLIT1uJo5X6oIF8TFeg7Ik94PqdFFnuXMGIsCRl7P8VY6mjlbF4RxtdsdgowlYLvvEiXxEd/z1oZhCIFBbRurl6InvY63szyQe7RjZ8fH42I9n6ooXuU77pOj7lx4SOUzn0IBPdPdokvqr+MiIQjyEpTL5VNtx54d+PQfvGP1kKajHKTCOB3yHW9aNZu/WuwRj42L9XxU0/yqZ7ubogFf8Le1DlY38TyRvyirGIq+IC4SgiAvAljpYZIk3Ugp/REldCcY+uhGLjGu6y6oVqu1oxZOZ7V6jG2YTwZDe4/Y4AXDmgesh6LFfdlOyN06HNtZmREy42owHYKMBbZtv90wjLngXG5lhF0aBQa17KsO4v6BEOIwxnxN01anUqm3xMWqTaVY+aGrWZsdzXom8Kg3mj3PUFg/ZIHjWFZ6zYYNX4yLhCDIfoCUiA+AzfDogRGq1bKruoinQ4RR0zTng1pkWeZz41580m05nX6PJsiPero1Df647gtSP0/ckQGeaW3L5/PX8m0l4mIhCLIPYCpHFIvFn0FKsisyHE4tu6qH+E4JhAmWYd0FzuWeRCLx2rhYL87GjRv/vVQo3RwEgcnnG8FBap+gHgKI7WVKpdItfGHsuEgIguyDVJJO1CTlUuqSPbGx17apegiCDh58VKvV28BWfx8X6aW54IIL3gj506zI0jmjmMdxqOu1m7b5J4hc8KkRguyHYib3R7lUvZ5a7sZRtVF4ccIg9AcGBh7t6+v777hIBwakJT82DKNAGetmHhFHbb7R0ICcARYEjyuKsmrPnj3vjYuEIEjME0888QZdVFa5lrOY2X7XqHVfgB8IXGIEHu3UVU2HtOxPcZEOjqeeeupc8Ez3MJd0RK6Kd4nUOuFIi3thfrogsCDkOmfRokW4OhuCDCOXy50HaYkSGcpoRS1DXaKDfAkRtSI+0NfeuWDp3KWvj4t0cFxyySVv6O7tPteznXZu6OCtjBFZkPolxHNHXl+MMqlSqdw6HhdMRpB60dHR8fEy36SPMrUuW6zsR6HPdN4P61vu5jKkZJV9JygeLEIm8zZJku6WZXkupCmzQj6+OBiFFInvIUMDy1T0pbqk8v6fcbNBFYLUi02bNh0J6dCjtmo8BDdhcbScS8jC0NSMeYIg3CNUhKZ0Oj0y+2qZpvkRONi1mqYNrS7OiVOX5y0lWKNQL1tDvdFVWzVvsGR9em9X7/fj4iDIpKWYzv2MOxbXdB4NfZob8b6WvQxftDW2dU1W51eqlcdFQ/xQXJwR4xV79uz5oSiKbZ7nFanrbwblApf2QA6WoJa3fkQ7fUnUccQCnyUhgtlVLZZn9fT0nByXBUEmHYVU5rumpK2BKGJn4FFtaAT9CNoc2C/Y8To49mbq+I6jW886mrmUOF5ZE5TOaqF0cUYQ6jdyfsGCBR9PJpN/JB552LWcpa5uPQRa6lvOysi9cS9Xq+AvR/GgOo6hGw/3JhK3/POf/zywwToIMoFYsXTFCb27uuaBsbdEBsHtbKRGz8NrL77lrrMUfRGkXvfqgrLYkNTmwkDmig1PrfnPlpaW0dm7PHTd9/X39n5NKlT+GwpymqUYt/uuVwaPVxlRB8PFgkHI9zbatv3UpnUbLvvYW96CW50ik4ZlG5Ydq8naHMeyV1myvhYi+ZGb88f7NnlHrUd3epaTtw1roVqVfp3p6P98f3ffdyzF2v9kxNFi/vz5R/MdEyFV6gkJE0Z8qcwY17T9ZEfPVam21OviUyPIhKW5uflNPYmeMzzL3RabQG37eLkCwLkkPUKa+IJTDbsbgiJITXypSvCspboM6oFDwvF3K1XxznwyfVVbWxsueI1MWC699NLj16xZMzdfzM8A55KtyzgzFvJdEhXP8+a5rvsInGFoS5BGY6An+Q1HtzrBuZARyweHi49/8ajNH1Ezn8rr1q375S9+8Qvsg0EmHHwHg76+vjvA4MUwDKW6DWAd2jxe03X9bkXTroxP33jk+9Pf9gynMwxCuy7OhWvv/iiur2zcuPHsrq6uX+5M7Dw+LgKCjHs2bNjw9nQu/ZtEf+I6QqnD2zsfWFrTHg5VkGGAc1HAudwlqepv4iI0Hlu3bj1OEoQHAxa44GDqVyG8E8qjMnXJDuKRXVK5+rCYLX0qLgaCjFt6OjpOrhbLayilA5ZuZMHwA4jUa9vBSAju1YFHyoZh/FPTtMbep72zp+fnUDGRt63r6EF47cUz7TXVfGXB44uWnYprwCDjkba2tiP6d3f9vpTOT3dUozlu2tDW6+hY4iwgcIlXLBb/GhelceED3TzP2+IT0gde16lbehQLoiNmq+ZG8PJ3SRXxSdM05xQKBdw9ABk36HnhA5asP2hKyizHslsdxdgC7ZrWau8jJrBL5hKHej7fZZUKgvCzuDiNy/r169+QzWZ/perq9QGhvaMyFXzIAfP1Jfogd5wjy/JVmUzmx3A3eFdcLARpOFpaWt5ZzOV+bsgaHxx3f8iCxFBDBtVq5yMpgNpemyFpl2uSOr9Sqbz4+reNQFNT0+Gqql4LOdzl1PXWRldR6+JGWvCBBB5tcxznYkjLpoODuRYqbKooit/nDi8uHoKMOVu3bn1ruVz+TqlUmq5I0m3Uce90dfvmgLK2UbkZc3F78Umva9i3SOXqr8FKG/MR9L6AYZ+czWdv8WynbdScy9BjahrCe8ghTXA0ekgD1bPch0uZwhWQx97Vu6f3Y82zZj1/q0kEGQXampuPap772IcK6dxFUlm4lflkMbTPIrRXI/Rplfch8vY7GkuagBOLnIvt2LtlUX4MbsCfjos5Pujr6/stdbyOUQnx9op3UHHB2+i88BXyyS5Xtx5Tq9LMUiZ3faq9+66B5MD34K7x4Vwu98a4uAgy4lRSqbckd3Wd1N/dd2qmp/8OIVe6wVD16Z7hrCCOtztqo3z8Chfvm+Rtt1a7HmFFzgWACD/R3t7+t3w+/864yOODdDr9OajAHdFV1LjA0RJzSUhttwfyyz2BS9uYR1K+T9czxnohdbsTdEuxWDwTKvrLvu9/rFAoHNfa2vp6vm4GlHx8hIrImDELIuGpU6e+li8mryjKu8Mw/LwgCGfqun6vbZr3+46X9k23BO2Qj1wfgHa4nlhunjm+ClHLqG+9yrXXuTiOs62jo+PL8aWMHxYuXHikZ9nro6vg1LjIURG/I+wHcDC/I4ydDZU8C/QUOJhrbdu+vlwtX6Oq6j00DL8FDeb7lmWdrls6ChWJtwdZl78D7ecKwzTbMpnMHZqhXep43qogDOZAW5ruM3YWOA++l09teLOs1V5HQzFwY93T1dX17thkxxfUpVeDwVYgPSpGfSKjkE8eiAI+KInv8EjoAwGlN0GEdR8j5Eni+o9T378xDIKlgU/v9CynybWcqWEQPsEIQ6Ei8fbg2u6NAQuWw/sCtJWpjFIlIOwp4pG5lNDZvF3x9hV10NZ5OMZBCWzQdz2dEFJyXfeq2FTHHxWt8l4IEacpmnIJeHSeYTZWRe8b1AyVcAj45ygHHv4zBNkLbxoeDaJOWN5O+P3Ko3b8r0Pw9lWr3Y2V4MVl6uZVYJdXVqvVY2JTHZ/ABfzB8zw+25Kv5h9AqAiuc9gFj6X2dXT8+70/4195o2kkZ4hqHO1tK3u192f7/s7w78dSvCzQnkMSOJ7jzdA07ZzYRMcv5XL5aFVVr+YjZ3Vdvyb0ab7hPDoKNZEFSUPgkbylGo84hnm/WBVbCrJ8Qmyi45tkMvkVCMNuAm95LlxkCZ0LCjWKiiIW5nq6fa8uSA9Vy+W/gAVOjN00+KZmXV1dp4iieDVfzJunSDUrAYVCjaiihygQuTBCRV1WHxQqlWlgfeO7r2VfEonE50ql0tzAp3rkXOCaa1UGCoUaQfEsASCEyNl8dpogC/8Xm+TEgu8ry3yiBj7LRj3rjdThhUJNNIF9wc3cAsciUEr7c7lc4y4Gdaik0+nXC/nKDFVQZvqmu2nIpaKDQaFGXNyugMAlSzK53I2FQmG2ZVn123OoEXhm4bITB3qSM4jltvOtYUNvbIZAo1ATVtyxwCtkQehYdm8ml7kum81+MTbBiU2iJ/FzVVEeMU3zKc9x2ngl1KwkFAp1cALHEtKA2pox3zXsFlVUVhYrxT/HpjfxgWjtNX19fafqpnmNZVpLQ8o8TI9QqBEQdy6MEVe3FliKvrCYK/61WCxOrmVGWltb3/T0qlVn26a5IhpiDxUTevSFlYVCoQ5ckXMJwLt488qZ/G35fP4DsclNLn70ox+9VxSE+/81fwfqpmaFoVColxaP/mNMWZ+R6c98Pja1yYkqil+hfHMW25kdeLRU1x0DUKiJKhKtwMh821OJT1xT1y+KTWxyUyqVftzX13cxIaTCvW60mE2tCkShULXFHxD5VC4UCtMgFRp/C0DVE1EUuXPxopgu7oNBoVAHoL2A3ciyfFZsUshe+NoSiqLMVDRldbQ8ZojpEQr1kmLhIHNIu1KVWlRBuhFczOGxSSHDaWlpeXUymTyduN6uIVcM1KpQFAoVG8jgoGc4xXQiNXGH9o8kjJCzbdtuZx5tDwkLQuyDQaGeJ24XzCW7uZ34pntzbDrIgXDRRRd9pqenZwH3zNGTar7uLX/ShoPtUJNVvO3Dl2hofxgGmUzmvhUrVoz/FeXGgvb29rNc17WhIod6wz0iBi4ho7FxFArVaOJLxEL7d0ISEAaRSwpSod27dx8dmwtysCxduvRTpVJpI3G9+b7lbmM+TY/alpcoVKOIB+2O/6yrWf+Uy8I8uSLgU6GRYGBg4N3VUulXlmIuDl3aEdU0B1Mk1ETWsBG3cFPN6aKyQCiUmhKJxGtj00BGAr5UZrlQPsVQtWbLsqZCFHNbSJgf9cXU+mBQqHEqvjRlyKI5Qr7v+i22bT+tKuoj5ULhp9wOYpNARpq+vr5PpLPZ8/P5/N9ip/4c3NHX+LBQqHGh5wKVf1EqlW4E/QPa+8djE0Dqyfz584/OD2T+ZihaH7G8PLHcPur4hcCjEkYyqHEpaLeBS1Tmkg7qep2U0k7XdfvAqVyyc+fO4+Omj4wW8+6c/eFiOnupXBGnSiXhRls1no7cPXxWQ1EMOhpUg2rvY2WuuG/F0YxnNEG6oloo31GpVH7f39//qbipI2PBYNvgEdV86Sfp7uS1pqztCILADz1qhT61ogEy/MOr9eGiUGMl3qfiUQIyA49PZ47GrbiWrD3b39F7b7VQ+kNnZ+er4iaOjDWzmpqOyg5kfwUe/35d1x8ydf3PvuvfHtJAHWQYwaAaQ3zGPx+3FTDW7/v+MsuyHjQNs7lQKNyYy+V+/vTixW+OmzTSaGSz2fcpivIHPju0WC6eF7IgE8Wcw4HPOdoHmqtGA0ChRlw8ih4GpTRrmuYttm0/AG32V+vWrcN+lfFCT0/PsV1dXf8nloUltmmt0QS52TPttYFH20KfJfnCVJA6ZXFxKlRdRAM+olYBOdF7wgZc3VqiyeoThmE8rqpqSzqd/jboNXGTRcYbixYtetXqJ1a/u2tX1ymF/kyTZ7kLIofC81yPP1qK4XeWWo0EhaqlvewTkdQiDELJ1PTZhWTmjp5dnb9buXLlh7ds2YID4SYSs5pmHVXqz37Kd7yZuqy1epZDiOtbxPbScIepRi2hVkNC1UXRYLFxqDgSSYB6QCrzSIa5fpa6fhUi4i2BR0oBZVt923nWMa0kI2xJPpn+8ublz7wlborIRGb69OnH9PX1/VepWj1NV/XriOM/Do0kiWlSnbT30SsF8fe8v6uBiSbLDoN/xxgbDIKhYBfeb/Y8735CyXzXdW8sVUo3ZLPZC0ul0uWSJF2WLWa/D9HJO//Z0oIRymRGl+WTwbk8Q22/DydF1kehSxmkoXyYgL+3I536hFFK3UYUdyDwlfOv74cDzmWpoihNhJCLMpnMn8ChnJ5Kpd6VTqffg0P0kQhoJ4cporwY7kg2Th+ok8BhQ/pQ1QX5Lq0qz3F1a7El60ur5eoZgiCcVSwWG0qVSuUsVVWvA4dxHv8e3p/lOM6FEM38FMr7U4hOfgLv37F79+438/YTNyUEeT6dic4TXdvZwe9GNQ0DdfAaNpt3L7xPSyiUrswmBmb37Oj6fffWrcfFHwGCTEzgTnRBQNkm7GsZIQ11drrE9XYQ13+M2N5C3/dbbcO8P9ef/uGmTZveGFc9gkxcVq1adZwgScup52/AvpZDEA9UuHivJ//CQltRlEsGMgO/zReLf8tms1+YO3cujudAJg9gAKeZprnCs931/I5b03BQLy7CBpnjS6FHLfgqhDTQmU9JtVz9W0dHx2dSqdTr4upGkMnBT37ykyPBsSSG7rToWA5Yex8p8/fx42RbM1abin6vIWvtYqk61bO975XLZVzbFZmcwF31y47jFLlxwN32hUaE2q9Cn3k8BYKvAaRAoakYiXwqe4spaz/btHDTkXEVI8jko7Oz8xhNVqdCxCJgX8tBiO/u5xKBEnKv67obVUVpqVQqN61dvfZ/pk6d+uq4ehFk8tK7s+MzQqF0Y+DSviiur2VIqJqPlJlHsrlC7sr29vaf7+7Y/b9NTU2vjKsVQRAhW7pFl7U5gU+L+Ah6P+ILRHvU8k13OzHdHcR2d/qWk9ZEeV4ymfxKXJUIguwll0y+3zWdpcT2OkPCCuhchmmof/ZfhDQgnu3O697VeW7n1p2/6li/BReJRpD9kc9mL2CUbmOu7zLHF/ERdCxIgUKfyqHPiiEJSoxQjbi+olbla/o6Oj4cVx+CILXgk8o0VdsUBnBPdkkYredSy9Amg3h/Clf8Hmok9D1vRVUUr0oNDDzS1dV1DtTXv8dVhyDIi5FMJr8vy/K1ocfMKAXY1+AmkcCxDiVB/P/wI45YEVb88+GHf7Jq1arPxFWGIMhLkclk3iZJ0gXgXG6A8N+c1DOgedBiOv2ubj3o6FanIamPV0vl2b0dHZ+PqwtBkAMFQvwfKYpyh2VZFwc0IP9KCSaDaizMRF1fLeUKf8/1Z/6aSCTeF1cTgiAHQ2dr6zG6oj7suu4O5vpPhJRNnr6WoVnKqm87q7mo67UR12v3HW9aJVf5aFxFCIK8HFJ9qS+6ulmIb9q1jXAiiad8w2AekSqVyi2SIl0hqdKZOJkQQUYAvnNdPp29wLec1ZGl1TLGCSTeUQvis5TLoc8E6tMAorVqPpM5LZ/PvzOuFgRBDpVCX/a/5ZJwP7H9pybsE6K9j5X5I2XCmGc4OxzVnJlPZS9Ldvb9VigI/xZXB4IgI8RhPbv2nKFUhFtcw35yIjqXaKwO77AdlgppVbk505s6s2dHz9vjekAQZCTp7u5+m21aXQFlhcAl4oR7QsRC/tRH9F3/Cce0NktVoVkQhDMx/UGQOqMoyvcDwozodj4RopYaj5Qdw8pnMpm/V8TKD5pmzToqvnQEQerF1772teN27dr1V3AuyYnhWILBwCMmdbyd1Hb7iOUKpm6utTXtD8uWLTs2vmwEQerNkytWfLe3t/dboUfH77YhvB+FO8a4PwUci6RL2mqpWLk72dX7A7hMXEsFQUaT1tbW11RKlVts274l9Fj7uIxc+OA3j1ogNYpYKPVdw+7o3N35hbZVbThOBUHGAl1UvhdS5vG7PTiXsKbxNqKGP1KmjNmW/XChULhCEISb8vn8tzs7O3HPHwQZQw6X8qXpYRCE0Wzf8fKECF4RcQrEMQxj7tOrV3/1xBNPfFV8bQiCjBVbnll3oqkaG0MWBHxPnZqG3GgCPxi4ZLcpa3M0UX7c0+11tmleYJrmW+LLQhBkrOncuvPnpqTNDoPQb7ioBV77w7fdSrZ/4M99uzo/G18KgiCNglyonmxqxibftDeGJPAaxbmEEEHxvZHgqxz4tC/02SbqeJ3Mo3tc097puu5avaqesWjRIkx/EKQR8Wz3wTgQGPu+Fn5+rmED34Ig2GPb9hzXd58UJOF8rnQ+/eW4+AiCNCKFQuEEcC7tkRXXMvbRFI9UPBpFTvCVMMZUXixKaVJV1QcEQZjW19f3H3zGdlx8BEEaFUEWvs18urEhdlDko2kp0zzD3uEa1p2mYT5QKpUeSiQS08rl8v/GRUYQpNGBVOPtgije5Zj27DGJXHj6sw8hDRVbM25Xq/K11Wr1tm3btuFK+ggy3qjkKmepgjzdt9zlkWXXcgB1UNRRy6IohRLHu9+33et5v49pmi25XG5zOpX6TdeurpOampoOj4uKIMh4odhbfFMlW7zfUvVl1CPVUdlBcZ9AJQxDpur69aIsXywpSlN3d/fpf/3rX0+Ki4ggyHiklMn/xDWsjZ7ttBLLSdfduUAKFLhEpbab8B1vK2Nsu+/7KUh97sxkMmcmk8kT4qIhCDJe4eNCiqncWWDs5SiE4I99azmEQ9Hex8nwGlrxLRykprvTUrQrMsmB8yD9ub63t/f87du3454/CDJRKKayXxeLlfsDn5bq9ZQo5Ate+3Qw9Jm8t+PWt52nhGJ5ZjlX/GNPT88H4+IgCDJRUErVPxiSckvIAmWkN5QPKHwFf0V80mdo2p1itXot6HrDMG4rl8vnpdPpD7c2NeF6Kggy0Simix9SqtLtzCXLA8LYiExSJDz3eT6EkISqqheD/lKsVH7Q3Nz8prgICIJMNMDmD9M17Sbqkl4+X2dE+lr4aFoauMz21sHX+Z7r/dO07RbXdbcKgvDbRCKBi14jyEQnm82+3TKtmaHPSBRe1HIWByJ4DYc7l8Bn63VZvzqVSFzy7Npnf7x582Zc9gBBJgvFYvHntmU/E7LwZW0ozwe/RctI0kBljp8MPNoeENpPHT+hSMojxf7cz3ft2vWe+HQIgkwGSqXS8eVq9Y+2bV8dssA74I5cnjpxwdu9eL633fG8meCs/ga6jfeprF279m3xqRAEmUz09vZ+QRCEP2mKMhucCzlQ5xJ61OYzlUEOpdQJwzBwHKdTkqTb0+n0qRipIMjk5nBd1x9ijOnEJxo4iuCA0iIWDgaE9bim85guKTeZprmoUqncr6rqVXxXxvjYCIJMVvbs2fMxiDa2xllNbUfCFQ92G07g0aQqydPL2cJDEPmc2tra+vr4sAiCTGbAPxwuVqt/II77BHcWUafsPk4l+hmPUiizHNNqJq6/2HfcpdSn68GxLOvv7vtRNpt9Q3xIBEGQKVPWr1r/LlWQbwxc2vmCTc72AdImR9GUe8vl8jX5UukC0OmLFi06Jj4UgiDIc1RzpYs9y32QOt7mwfC5QXN87k/gkgqowHwqUUqLvu8X8/n8rX19fT/btGnTkfEhEARBns+SJUuO80wnWoc26k/h2vtoGV6WpN8jFSpNlULphnK1fHuhUPg/3J0QQZCXZGBg4KfU8avct0CEEnLnEo3OBecS0oA6utVZzhYvzSaTJxWLxaPiP0MQBNk/pVLp3bIsX0cI6efOhRKaUmV1uizJMwzNaLZN81ZFUU4LpfC18Z8gCIK8NOBcTlNV9W5CSSmKXIKgLZlMnp5MJS/a1bHrK7g+LYIgB83u3buPFkVxjq7r02zbfsp13TXlcvkhcDifAT/zmvjXEARBDo58Pv8f4Fiu4evTbt269VebNm367Nlnn31E/M8IgiAHD49aKpXKrdy5SJL02XQ6jZEKgiCHTrFYfFdvb+/HFi1a9Ir4RwiCjBumTPn/K+lVxjuVCJwAAAAASUVORK5CYII=;" vertex="1" parent="1">
          <mxGeometry x="384" y="142.74" width="70" height="72.26" as="geometry" />
        </mxCell>
        <mxCell id="tiojj71F45lMDTv18i7m-18" value="" style="ellipse;whiteSpace=wrap;html=1;aspect=fixed;fillColor=#76608a;strokeColor=#432D57;fontColor=#ffffff;" vertex="1" parent="1">
          <mxGeometry x="160" y="129" width="100" height="100" as="geometry" />
        </mxCell>
        <mxCell id="tiojj71F45lMDTv18i7m-21" value="" style="sketch=0;pointerEvents=1;shadow=0;dashed=0;html=1;strokeColor=none;labelPosition=center;verticalLabelPosition=bottom;verticalAlign=top;align=center;fillColor=#FFFFFF;shape=mxgraph.mscae.intune.user_group" vertex="1" parent="1">
          <mxGeometry x="177" y="155.37" width="65" height="47.26" as="geometry" />
        </mxCell>
        <mxCell id="tiojj71F45lMDTv18i7m-23" value="" style="ellipse;whiteSpace=wrap;html=1;aspect=fixed;fillColor=#60a917;strokeColor=#2D7600;fontColor=#ffffff;" vertex="1" parent="1">
          <mxGeometry x="587.6" y="128.87" width="100" height="100" as="geometry" />
        </mxCell>
        <mxCell id="tiojj71F45lMDTv18i7m-22" value="" style="shape=cylinder;whiteSpace=wrap;html=1;boundedLbl=1;backgroundOutline=1;strokeColor=#60A917;strokeWidth=3;" vertex="1" parent="1">
          <mxGeometry x="612.6" y="149" width="50" height="60" as="geometry" />
        </mxCell>
        <mxCell id="tiojj71F45lMDTv18i7m-25" value="" style="ellipse;whiteSpace=wrap;html=1;aspect=fixed;fillColor=#1ba1e2;strokeColor=#006EAF;fontColor=#ffffff;" vertex="1" parent="1">
          <mxGeometry x="369" y="340" width="100" height="100" as="geometry" />
        </mxCell>
        <mxCell id="tiojj71F45lMDTv18i7m-24" value="" style="sketch=0;outlineConnect=0;fontColor=#232F3E;gradientColor=none;fillColor=#FFFFFF;strokeColor=none;dashed=0;verticalLabelPosition=bottom;verticalAlign=top;align=center;html=1;fontSize=12;fontStyle=0;aspect=fixed;pointerEvents=1;shape=mxgraph.aws4.action;" vertex="1" parent="1">
          <mxGeometry x="380" y="351" width="78" height="78" as="geometry" />
        </mxCell>
        <mxCell id="tiojj71F45lMDTv18i7m-26" value="" style="ellipse;whiteSpace=wrap;html=1;aspect=fixed;fillColor=#f0a30a;strokeColor=#BD7000;fontColor=#000000;dashed=1;opacity=80;" vertex="1" parent="1">
          <mxGeometry x="587.6" y="340" width="100" height="100" as="geometry" />
        </mxCell>
        <mxCell id="tiojj71F45lMDTv18i7m-31" value="" style="sketch=0;aspect=fixed;pointerEvents=1;shadow=0;dashed=0;html=1;strokeColor=none;labelPosition=center;verticalLabelPosition=bottom;verticalAlign=top;align=center;fillColor=#FFFFFF;shape=mxgraph.mscae.general.graph" vertex="1" parent="1">
          <mxGeometry x="612.6" y="370" width="45" height="45" as="geometry" />
        </mxCell>
        <mxCell id="tiojj71F45lMDTv18i7m-32" value="" style="shape=flexArrow;endArrow=classic;html=1;rounded=0;fillColor=#eeeeee;strokeColor=#36393d;" edge="1" parent="1">
          <mxGeometry width="50" height="50" relative="1" as="geometry">
            <mxPoint x="269" y="180" as="sourcePoint" />
            <mxPoint x="359" y="180" as="targetPoint" />
          </mxGeometry>
        </mxCell>
        <mxCell id="tiojj71F45lMDTv18i7m-33" value="" style="shape=flexArrow;endArrow=classic;html=1;rounded=0;fillColor=#eeeeee;strokeColor=#36393d;" edge="1" parent="1">
          <mxGeometry width="50" height="50" relative="1" as="geometry">
            <mxPoint x="572" y="179.5" as="sourcePoint" />
            <mxPoint x="482" y="179.5" as="targetPoint" />
          </mxGeometry>
        </mxCell>
        <mxCell id="tiojj71F45lMDTv18i7m-34" value="" style="shape=flexArrow;endArrow=classic;html=1;rounded=0;fillColor=#eeeeee;strokeColor=#36393d;" edge="1" parent="1">
          <mxGeometry width="50" height="50" relative="1" as="geometry">
            <mxPoint x="418.5" y="245" as="sourcePoint" />
            <mxPoint x="418.5" y="325" as="targetPoint" />
          </mxGeometry>
        </mxCell>
        <mxCell id="tiojj71F45lMDTv18i7m-35" value="" style="shape=flexArrow;endArrow=classic;html=1;rounded=0;dashed=1;fillColor=#eeeeee;strokeColor=#36393d;" edge="1" parent="1">
          <mxGeometry width="50" height="50" relative="1" as="geometry">
            <mxPoint x="637.1" y="250" as="sourcePoint" />
            <mxPoint x="637.1" y="330" as="targetPoint" />
          </mxGeometry>
        </mxCell>
        <mxCell id="tiojj71F45lMDTv18i7m-36" value="" style="shape=flexArrow;endArrow=classic;html=1;rounded=0;dashed=1;fillColor=#eeeeee;strokeColor=#36393d;" edge="1" parent="1">
          <mxGeometry width="50" height="50" relative="1" as="geometry">
            <mxPoint x="481" y="392" as="sourcePoint" />
            <mxPoint x="571" y="392" as="targetPoint" />
          </mxGeometry>
        </mxCell>
        <mxCell id="tiojj71F45lMDTv18i7m-38" value="" style="shape=flexArrow;endArrow=classic;html=1;rounded=0;dashed=1;fillColor=#eeeeee;strokeColor=#36393d;" edge="1" parent="1">
          <mxGeometry width="50" height="50" relative="1" as="geometry">
            <mxPoint x="419" y="120" as="sourcePoint" />
            <mxPoint x="209" y="120" as="targetPoint" />
            <Array as="points">
              <mxPoint x="419" y="70" />
              <mxPoint x="309" y="70" />
              <mxPoint x="209" y="70" />
            </Array>
          </mxGeometry>
        </mxCell>
        <mxCell id="tiojj71F45lMDTv18i7m-39" value="Prompts&amp;nbsp;&lt;span style=&quot;background-color: transparent; color: light-dark(rgb(0, 0, 0), rgb(255, 255, 255));&quot;&gt;&amp;amp;&lt;/span&gt;&lt;div&gt;&lt;span style=&quot;background-color: transparent; color: light-dark(rgb(0, 0, 0), rgb(255, 255, 255));&quot;&gt;Question&lt;/span&gt;&lt;/div&gt;" style="text;html=1;align=center;verticalAlign=middle;resizable=0;points=[];autosize=1;strokeColor=none;fillColor=none;fontStyle=2" vertex="1" parent="1">
          <mxGeometry x="262" y="132" width="80" height="40" as="geometry" />
        </mxCell>
        <mxCell id="tiojj71F45lMDTv18i7m-40" value="&lt;i&gt;Context &amp;amp;&lt;/i&gt;&lt;div&gt;&lt;i&gt;Answer(s)&lt;/i&gt;&lt;/div&gt;" style="text;html=1;align=center;verticalAlign=middle;resizable=0;points=[];autosize=1;strokeColor=none;fillColor=none;" vertex="1" parent="1">
          <mxGeometry x="499" y="130" width="80" height="40" as="geometry" />
        </mxCell>
        <mxCell id="tiojj71F45lMDTv18i7m-41" value="&lt;i&gt;Data-&lt;/i&gt;&lt;div&gt;&lt;i&gt;Related&lt;/i&gt;&lt;/div&gt;&lt;div&gt;&lt;i&gt;Metrics&lt;/i&gt;&lt;/div&gt;" style="text;html=1;align=center;verticalAlign=middle;resizable=0;points=[];autosize=1;strokeColor=none;fillColor=none;" vertex="1" parent="1">
          <mxGeometry x="641" y="250" width="60" height="60" as="geometry" />
        </mxCell>
        <mxCell id="tiojj71F45lMDTv18i7m-42" value="&lt;i&gt;Performance-&lt;/i&gt;&lt;div&gt;&lt;i&gt;Related&lt;/i&gt;&lt;/div&gt;&lt;div&gt;&lt;i&gt;Metrics&lt;/i&gt;&lt;/div&gt;" style="text;html=1;align=center;verticalAlign=middle;resizable=0;points=[];autosize=1;strokeColor=none;fillColor=none;" vertex="1" parent="1">
          <mxGeometry x="469" y="330" width="100" height="60" as="geometry" />
        </mxCell>
        <mxCell id="tiojj71F45lMDTv18i7m-43" value="&lt;i&gt;Validation&lt;/i&gt;" style="text;html=1;align=center;verticalAlign=middle;resizable=0;points=[];autosize=1;strokeColor=none;fillColor=none;" vertex="1" parent="1">
          <mxGeometry x="268" y="40" width="80" height="30" as="geometry" />
        </mxCell>
        <mxCell id="tiojj71F45lMDTv18i7m-44" value="&lt;i&gt;Actions &amp;amp;&lt;/i&gt;&lt;div&gt;&lt;i&gt;Schedules&lt;/i&gt;&lt;/div&gt;" style="text;html=1;align=center;verticalAlign=middle;resizable=0;points=[];autosize=1;strokeColor=none;fillColor=none;" vertex="1" parent="1">
          <mxGeometry x="418" y="254" width="80" height="40" as="geometry" />
        </mxCell>
      </root>
    </mxGraphModel>
  </diagram>
</mxfile>
